<svg xmlns="http://www.w3.org/2000/svg" viewBox="0 0 200 200">
  <circle cx="100" cy="100" r="100" fill="#FFF3C4"/>
  <polygon points="55,70 75,28 95,75" fill="#1a1a1a"/>
  <polygon points="105,75 125,28 145,70" fill="#1a1a1a"/>
  <polygon points="64,64 75,40 86,67" fill="#FF6FA8"/>
  <polygon points="114,67 125,40 136,64" fill="#FF6FA8"/>
  <circle cx="100" cy="108" r="50" fill="#1a1a1a"/>
  <ellipse cx="82" cy="102" rx="12" ry="15" fill="#fff"/>
  <ellipse cx="118" cy="102" rx="12" ry="15" fill="#fff"/>
  <circle cx="84" cy="105" r="6" fill="#1a1a1a"/>
  <circle cx="120" cy="105" r="6" fill="#1a1a1a"/>
  <circle cx="86" cy="100" r="2" fill="#fff"/>
  <circle cx="122" cy="100" r="2" fill="#fff"/>
  <polygon points="95,120 105,120 100,128" fill="#FF6FA8"/>
  <ellipse cx="100" cy="134" rx="10" ry="6" fill="#7a1f3d"/>
  <line x1="62" y1="118" x2="30" y2="112" stroke="#fff" stroke-width="2" stroke-linecap="round"/>
  <line x1="62" y1="125" x2="30" y2="128" stroke="#fff" stroke-width="2" stroke-linecap="round"/>
  <line x1="138" y1="118" x2="170" y2="112" stroke="#fff" stroke-width="2" stroke-linecap="round"/>
  <line x1="138" y1="125" x2="170" y2="128" stroke="#fff" stroke-width="2" stroke-linecap="round"/>
  <!-- churro -->
  <g transform="rotate(28 130 150)">
    <rect x="105" y="142" width="70" height="18" rx="9" fill="#E0A458"/>
    <path d="M112,142 v18 M124,142 v18 M136,142 v18 M148,142 v18 M160,142 v18 M172,142 v18"
          stroke="#C9863A" stroke-width="2.5"/>
    <circle cx="112" cy="146" r="1.6" fill="#fff"/>
    <circle cx="120" cy="153" r="1.6" fill="#fff"/>
    <circle cx="130" cy="147" r="1.6" fill="#fff"/>
    <circle cx="140" cy="154" r="1.6" fill="#fff"/>
    <circle cx="150" cy="146" r="1.6" fill="#fff"/>
    <circle cx="160" cy="153" r="1.6" fill="#fff"/>
    <circle cx="170" cy="147" r="1.6" fill="#fff"/>
  </g>
</svg>
